<?xml version="1.0" encoding="iso-8859-1"?>
<!-- Generator: Adobe Illustrator 19.0.0, SVG Export Plug-In . SVG Version: 6.00 Build 0)  -->
<svg version="1.1" id="Capa_1" xmlns="http://www.w3.org/2000/svg" xmlns:xlink="http://www.w3.org/1999/xlink" x="0px" y="0px"
	 viewBox="0 0 512 512" style="enable-background:new 0 0 512 512;" xml:space="preserve">
<g>
	<g>
		<rect x="301" y="270" width="90" height="30"/>
	</g>
</g>
<g>
	<g>
		<path d="M391,94.189V0H121v94.189l-90,30V512h450V124.189L391,94.189z M331,30l-75,56l-75-56H331z M361,45v53.787l-45,45
			l-37.164-37.164L361,45z M151,45l82.164,61.623L196,143.787l-45-45V45z M451,482H61V145.812l70.949-23.65L196,186.213l45-45V240
			h30v-98.787l45,45l64.051-64.051L451,145.812V482z"/>
	</g>
</g>
<g>
</g>
<g>
</g>
<g>
</g>
<g>
</g>
<g>
</g>
<g>
</g>
<g>
</g>
<g>
</g>
<g>
</g>
<g>
</g>
<g>
</g>
<g>
</g>
<g>
</g>
<g>
</g>
<g>
</g>
</svg>
